<svg width="24" height="24" viewBox="0 0 24 24" fill="none" xmlns="http://www.w3.org/2000/svg">
<g clip-path="url(#clip0)">
<path d="M14.1213 0.878432C15.2929 2.05 15.2929 3.9495 14.1213 5.12107C12.9497 6.29264 11.0502 6.29264 9.87867 5.12107C8.70711 3.9495 8.70711 2.05 9.87867 0.878432C11.0502 -0.293136 12.9497 -0.293136 14.1213 0.878432Z" fill="black"/>
<path d="M14.1213 9.87867C15.2929 11.0502 15.2929 12.9497 14.1213 14.1213C12.9497 15.2929 11.0502 15.2929 9.87867 14.1213C8.70711 12.9497 8.70711 11.0502 9.87867 9.87867C11.0502 8.70711 12.9497 8.70711 14.1213 9.87867" fill="black"/>
<path d="M14.1213 18.8787C15.2929 20.0502 15.2929 21.9497 14.1213 23.1213C12.9497 24.2929 11.0502 24.2929 9.87867 23.1213C8.70711 21.9497 8.70711 20.0502 9.87867 18.8787C11.0502 17.7071 12.9497 17.7071 14.1213 18.8787" fill="black"/>
</g>
<defs>
<clipPath id="clip0">
<rect width="24" height="24" fill="white"/>
</clipPath>
</defs>
</svg>
